<svg width="28" height="26" viewBox="0 0 28 26" fill="none" xmlns="http://www.w3.org/2000/svg">
<g clip-path="url(#clip0_1_373)">
<path d="M13.5164 5.70462C15.6541 5.70462 17.6683 6.58456 19.1444 7.96012V7.96418C19.1444 7.30362 19.6231 6.80393 20.2846 6.80393H20.4526C21.4964 6.80393 21.7056 7.71799 21.7056 8.00643L21.7099 18.2724C21.6373 18.9451 22.4581 19.2929 22.9139 18.8606C24.6858 17.1682 26.8094 10.1514 21.8106 6.08893C17.1486 2.29699 10.8914 2.92343 7.56468 5.05218C4.0288 7.32068 1.76868 12.3314 3.96406 17.0406C6.36155 22.1748 13.2154 23.7064 17.2947 22.1789C19.3597 21.4046 20.3117 23.9932 18.1653 24.8406C14.9304 26.1219 5.9153 25.9911 1.70481 19.2206C-1.13982 14.647 -0.98932 6.60162 6.55843 2.43349C12.3273 -0.757194 19.9389 0.126807 24.5274 4.57524C29.3224 9.23006 29.0451 17.9392 24.3638 21.3249C22.2437 22.8646 19.0954 21.3672 19.1182 19.1239L19.0946 18.3926C17.6184 19.7503 15.6541 20.5466 13.5164 20.5466C9.28755 20.5466 5.56443 17.0886 5.56443 13.1658C5.56443 9.20081 9.28755 5.70624 13.5164 5.70624V5.70462ZM18.8356 12.8822C18.6754 10.0084 16.3786 8.27781 13.6031 8.27781H13.4981C10.2991 8.27781 8.52193 10.6178 8.52193 13.2706C8.52193 16.2452 10.6683 18.1237 13.4849 18.1237C16.6288 18.1237 18.6929 15.9876 18.8434 13.4607L18.8356 12.8822Z" fill="white"/>
</g>
<defs>
<clipPath id="clip0_1_373">
<rect width="28" height="26" fill="white"/>
</clipPath>
</defs>
</svg>
