<svg width="301" height="420" viewBox="0 0 301 420" fill="none" xmlns="http://www.w3.org/2000/svg">
<ellipse cx="188.87" cy="107.25" rx="49.6063" ry="95.3164" transform="rotate(23.9775 188.87 107.25)" fill="black"/>
<ellipse cx="188.87" cy="107.25" rx="49.6063" ry="95.3164" transform="rotate(23.9775 188.87 107.25)" fill="black"/>
<ellipse cx="188.87" cy="107.25" rx="49.6063" ry="95.3164" transform="rotate(23.9775 188.87 107.25)" fill="black"/>
<ellipse cx="116.989" cy="151.497" rx="49.6063" ry="95.3165" transform="rotate(-26.9051 116.989 151.497)" fill="black"/>
<ellipse cx="116.989" cy="151.497" rx="49.6063" ry="95.3165" transform="rotate(-26.9051 116.989 151.497)" fill="black"/>
<ellipse cx="116.989" cy="151.497" rx="49.6063" ry="95.3165" transform="rotate(-26.9051 116.989 151.497)" fill="black"/>
<path d="M220.76 160.139C259.972 160.139 291.76 191.927 291.76 231.139V411H80C40.7878 411 9 379.212 9 340V160.139H220.76Z" fill="#1D1D1D" stroke="black" stroke-width="18"/>
<path d="M103.841 210.326V359H84.4584V210.326H103.841ZM254.418 210.326V228.431H203.085V359H183.702V228.431H132.369V210.326H254.418Z" fill="black"/>
</svg>
